<svg width="91" height="75" viewBox="0 0 91 75" fill="none" xmlns="http://www.w3.org/2000/svg">
<path d="M75.4292 0.703776C75.0654 0.851689 74.7365 1.07402 74.4636 1.35652L32.046 43.9675L7.94935 32.4705C6.73803 31.8945 5.28856 32.2521 4.48416 33.3254C3.67976 34.3988 3.7434 35.8903 4.6363 36.8913L34.529 68.8938C35.1163 69.5609 35.9839 69.9118 36.8698 69.8405C37.7557 69.7693 38.5561 69.2843 39.0293 68.532L78.8321 4.8631C79.5047 3.83426 79.4328 2.48813 78.6545 1.53673C77.8761 0.585319 76.5709 0.24826 75.4292 0.703776Z" fill="url(#paint0_linear_8_106)"/>
<path d="M76.0935 2.17815C75.9083 2.22926 75.7392 2.32641 75.6018 2.46059L32.342 45.8822L7.24219 33.948C6.73639 33.5704 6.02028 33.6744 5.64271 34.1802C5.26515 34.686 5.36911 35.4021 5.87492 35.7797L35.7676 67.7823C36.0097 68.0391 36.3573 68.169 36.7084 68.1337C37.0595 68.0985 37.3744 67.9022 37.5606 67.6024L77.3634 3.93352C77.6576 3.53538 77.6604 2.99264 77.3702 2.59155C77.08 2.19046 76.5636 2.02326 76.0935 2.17815Z" fill="url(#paint1_linear_8_106)"/>
<path d="M76.2016 3.62064L32.6447 47.3783L7.03453 35.1815L36.6803 66.8681L76.2028 3.62187L76.2016 3.62064Z" fill="url(#paint2_linear_8_106)"/>
<defs>
<linearGradient id="paint0_linear_8_106" x1="27.8239" y1="24.8432" x2="64.5291" y2="61.5818" gradientUnits="userSpaceOnUse">
<stop stop-color="#236B0D"/>
<stop offset="1" stop-color="#081B04"/>
</linearGradient>
<linearGradient id="paint1_linear_8_106" x1="25.9784" y1="31.2292" x2="39.7988" y2="55.6102" gradientUnits="userSpaceOnUse">
<stop stop-color="#2AF52F"/>
<stop offset="1" stop-color="#11661D"/>
</linearGradient>
<linearGradient id="paint2_linear_8_106" x1="24.1274" y1="34.9993" x2="64.7288" y2="61.2814" gradientUnits="userSpaceOnUse">
<stop stop-color="#97FF82"/>
<stop offset="1" stop-color="#CEFF24" stop-opacity="0"/>
</linearGradient>
</defs>
</svg>
