<svg id="Calque_1" data-name="Calque 1" xmlns="http://www.w3.org/2000/svg" viewBox="0 0 52.35 14.01"><defs><style>.cls-1,.cls-2,.cls-3,.cls-4{fill:#1e4fad;}.cls-2{fill-rule:evenodd;}.cls-3,.cls-4{isolation:isolate;font-size:6px;font-family:TwCenMT-Bold, Tw Cen MT;font-weight:700;}.cls-3{letter-spacing:0.15em;}.cls-5{fill:none;stroke:#1e4fad;stroke-miterlimit:10;stroke-width:0.5px;}</style></defs><title>facebook</title><path class="cls-1" d="M7.63,14a7,7,0,0,1-7-6.1l.49-.06a6.52,6.52,0,0,0,13-.85,7,7,0,0,1,7-7H44.69a7,7,0,0,1,7,6.1l-.49.07A6.53,6.53,0,0,0,44.74.52H21.16A6.54,6.54,0,0,0,14.64,7a7,7,0,0,1-7,7Z" transform="translate(0 -0.02)"/><path class="cls-1" d="M52.34,6a.93.93,0,0,1-.77,1.07.94.94,0,0,1-1.07-.77V6.17a.93.93,0,0,1,.93-.93h0A.92.92,0,0,1,52.34,6Z" transform="translate(0 -0.02)"/><path class="cls-1" d="M1.86,7.85a.93.93,0,1,0-.86,1,.93.93,0,0,0,.86-1Z" transform="translate(0 -0.02)"/><path class="cls-1" d="M21.43,4.77h.41l-1.2,3.8h-.41Z" transform="translate(0 -0.02)"/><path class="cls-2" d="M8.21,5.57H8.7V4.82H8A1,1,0,0,0,7.4,5,1,1,0,0,0,7,5.65,1.71,1.71,0,0,0,7,6v.57H6.28v.83H7V9.46h.87V7.33h.7a8,8,0,0,1,.11-.84H7.85V5.9A.35.35,0,0,1,8.21,5.57Z" transform="translate(0 -0.02)"/><text class="cls-3" transform="translate(22.4 8.68)">f</text><text class="cls-4" transform="translate(24.34 8.55)">acebook</text><rect class="cls-5" x="16.68" y="1.62" width="31.36" height="11.01" rx="5.5"/><circle class="cls-5" cx="7.7" cy="6.98" r="5"/></svg>