<svg id="Calque_1" data-name="Calque 1" xmlns="http://www.w3.org/2000/svg" viewBox="0 0 52.35 14.01"><defs><style>.cls-1{opacity:0.4;}.cls-2{fill:#595959;}.cls-3{fill:#fff;}.cls-4,.cls-5,.cls-7,.cls-8{fill:#1e4fad;}.cls-5{fill-rule:evenodd;}.cls-6,.cls-7,.cls-8{isolation:isolate;}.cls-7,.cls-8{font-size:6px;font-family:TwCenMT-Bold, Tw Cen MT;font-weight:700;}.cls-7{letter-spacing:0.08em;}</style></defs><title>facebook2</title><g class="cls-1"><circle class="cls-2" cx="7.63" cy="7" r="5.19"/></g><circle class="cls-3" cx="7.63" cy="7" r="5.19"/><g class="cls-1"><path class="cls-2" d="M45.4,14.43H22.54A5.45,5.45,0,0,1,17.08,9V9h0A5.45,5.45,0,0,1,22.53,3.5H45.4A5.47,5.47,0,0,1,50.87,9h0a5.45,5.45,0,0,1-5.46,5.46Z" transform="translate(-1.06 -1.97)"/></g><path class="cls-3" d="M45.4,14.43H22.54A5.45,5.45,0,0,1,17.08,9V9h0A5.45,5.45,0,0,1,22.53,3.5H45.4A5.47,5.47,0,0,1,50.87,9h0a5.45,5.45,0,0,1-5.46,5.46Z" transform="translate(-1.06 -1.97)"/><path class="cls-4" d="M8.69,16a7,7,0,0,1-7-6.1l.49-.06a6.52,6.52,0,0,0,13-.85,7,7,0,0,1,7-7H45.75a7,7,0,0,1,7,6.1l-.49.07a6.53,6.53,0,0,0-6.46-5.67H22.22A6.53,6.53,0,0,0,15.7,9a7,7,0,0,1-7,7Z" transform="translate(-1.06 -1.97)"/><path class="cls-4" d="M53.4,8a.93.93,0,1,1-1.84.27.57.57,0,0,1,0-.13.93.93,0,0,1,.93-.93A.92.92,0,0,1,53.4,8Z" transform="translate(-1.06 -1.97)"/><path class="cls-4" d="M2.92,9.82a.93.93,0,1,0-.86,1,.93.93,0,0,0,.86-1Z" transform="translate(-1.06 -1.97)"/><path class="cls-4" d="M22.49,6.74h.41l-1.2,3.8h-.41Z" transform="translate(-1.06 -1.97)"/><path class="cls-5" d="M9.27,7.54h.49V6.79H9.08A1,1,0,0,0,8.46,7a1,1,0,0,0-.38.62,1.71,1.71,0,0,0,0,.32v.57H7.34v.83h.71v2.09h.87V9.3h.7a8,8,0,0,1,.11-.84H8.91V7.87A.35.35,0,0,1,9.27,7.54Z" transform="translate(-1.06 -1.97)"/><g class="cls-6"><text class="cls-7" transform="translate(22.4 8.7)">f</text><text class="cls-8" transform="translate(24.34 8.7)">acebook</text></g></svg>