<svg id="Calque_1" data-name="Calque 1" xmlns="http://www.w3.org/2000/svg" xmlns:xlink="http://www.w3.org/1999/xlink" viewBox="0 0 47.5 12.74"><defs><style>.cls-1,.cls-8{fill:none;}.cls-2{fill:#fd3832;}.cls-3{fill:#ea4335;}.cls-4{fill:#fbbc05;}.cls-5{fill:#4285f4;}.cls-6{fill:#34a853;}.cls-7{clip-path:url(#clip-path);}.cls-8{stroke:#fd3832;stroke-miterlimit:10;stroke-width:0.5px;}</style><clipPath id="clip-path" transform="translate(-0.97 -1.78)"><path class="cls-1" d="M10.23,7.87H7.9v1H9.24a1.25,1.25,0,0,1-1.34,1,1.48,1.48,0,1,1,.92-2.63l.73-.73A2.5,2.5,0,1,0,7.9,10.89h0a2.36,2.36,0,0,0,2.4-2.32,2.09,2.09,0,0,0,0-.25A1.74,1.74,0,0,0,10.23,7.87Z"/></clipPath></defs><title>google</title><path class="cls-2" d="M7.89,14.52A6.38,6.38,0,0,1,1.58,9L2,8.92a5.92,5.92,0,0,0,11.79-.77,6.37,6.37,0,0,1,6.37-6.37H41.55a6.38,6.38,0,0,1,6.31,5.54l-.44,0a5.94,5.94,0,0,0-5.87-5.14H20.18a5.93,5.93,0,0,0-5.92,5.92A6.38,6.38,0,0,1,7.89,14.52Z" transform="translate(-0.97 -1.78)"/><path class="cls-2" d="M48.47,7.24a.85.85,0,0,1-1.69.14.85.85,0,0,1,.78-.92h0A.86.86,0,0,1,48.47,7.24Z" transform="translate(-0.97 -1.78)"/><path class="cls-2" d="M2.65,8.92a.84.84,0,0,0-.91-.76.83.83,0,0,0-.76.9.84.84,0,0,0,1.67-.12Z" transform="translate(-0.97 -1.78)"/><path class="cls-2" d="M23.59,6.45H24L22.7,9.38h-.45Z" transform="translate(-0.97 -1.78)"/><path class="cls-3" d="M30.26,8.55A1.06,1.06,0,1,1,29.2,7.49a1,1,0,0,1,1.06.94Zm-.47,0a.6.6,0,0,0-.56-.64h0a.61.61,0,0,0-.6.62v0a.62.62,0,0,0,.6.64h0a.61.61,0,0,0,.59-.63Z" transform="translate(-0.97 -1.78)"/><path class="cls-4" d="M32.55,8.55a1.06,1.06,0,1,1-1.06-1.06,1,1,0,0,1,1.06.94Zm-.47,0a.6.6,0,0,0-.56-.64h0a.61.61,0,0,0-.6.62v0a.62.62,0,0,0,.6.64h0a.61.61,0,0,0,.59-.63Z" transform="translate(-0.97 -1.78)"/><path class="cls-5" d="M34.74,7.55v1.9a1,1,0,0,1-.89,1.09h-.11a1,1,0,0,1-.93-.62l.4-.17a.57.57,0,0,0,.53.37.54.54,0,0,0,.57-.5.24.24,0,0,0,0-.12V9.32h0a.69.69,0,0,1-.55.24,1.06,1.06,0,0,1,0-2.11.69.69,0,0,1,.55.24h0V7.51Zm-.41,1a.59.59,0,0,0-.54-.64h0a.64.64,0,0,0,0,1.28.59.59,0,0,0,.56-.62Z" transform="translate(-0.97 -1.78)"/><path class="cls-6" d="M35.47,6.44v3.1H35V6.44Z" transform="translate(-0.97 -1.78)"/><path class="cls-3" d="M37.23,8.89l.36.24a1.06,1.06,0,0,1-1.93-.48v-.1a1,1,0,0,1,.94-1.06h.06a1,1,0,0,1,.9.67l0,.12-1.41.59a.54.54,0,0,0,.51.32A.6.6,0,0,0,37.23,8.89Zm-1.11-.38,1-.39a.41.41,0,0,0-.4-.22.58.58,0,0,0-.6.56Z" transform="translate(-0.97 -1.78)"/><path class="cls-5" d="M26.4,8.32v-.5h1.52a1.22,1.22,0,0,1,0,.27,1.41,1.41,0,0,1-.39,1.05,1.49,1.49,0,0,1-1.14.46,1.64,1.64,0,0,1,0-3.28,1.61,1.61,0,0,1,1.12.45l-.32.32a1.17,1.17,0,0,0-.81-.32,1.19,1.19,0,0,0,0,2.38,1.11,1.11,0,0,0,.83-.32,1,1,0,0,0,.28-.51Z" transform="translate(-0.97 -1.78)"/><g class="cls-7"><path class="cls-4" d="M5.17,9.8v-3L7.1,8.32Z" transform="translate(-0.97 -1.78)"/></g><g class="cls-7"><path class="cls-3" d="M5.17,6.84,7.1,8.32l.8-.69,2.73-.45V5.59H5.17Z" transform="translate(-0.97 -1.78)"/></g><g class="cls-7"><path class="cls-6" d="M5.17,9.8,8.58,7.18l.9.12,1.15-1.71v5.46H5.17Z" transform="translate(-0.97 -1.78)"/></g><g class="cls-7"><path class="cls-5" d="M10.63,11.05,7.1,8.32,6.65,8l4-1.14Z" transform="translate(-0.97 -1.78)"/></g><rect class="cls-8" x="15.88" y="1.51" width="27.9" height="10.2" rx="4.5"/><circle class="cls-8" cx="6.94" cy="6.52" r="4.51"/></svg>