<svg id="Calque_1" data-name="Calque 1" xmlns="http://www.w3.org/2000/svg" viewBox="0 0 996.07 729.15">
  <defs>
    <style>.cls-1{fill:#677678;}.cls-2{fill:#fff;}.cls-3{fill:#3c464f;}.cls-4,.cls-7{fill:#222b32;}.cls-5{fill:#ffc5a1;}.cls-6{fill:#fff1e8;}.cls-7{fill-opacity:0.33;}.cls-8{fill:#44c5e5;}.cls-9{fill:#374850;}.cls-10{fill:red;}.cls-11{fill:#919191;}</style>
  </defs>
  <title>laptop</title>
  <g id="layer1">
    <path class="cls-1" d="M646.9,833h0l-8.94,9h0l-8,8.17.06.12L812.55,849h0l183.75-1.36h.07l1.76-6.45h0a40.19,40.19,0,0,0,1.44-6.77h0v-.13c-4.75-.35-46.06-.58-95.72-.76H894.2c-52.47-.09-124.85-.21-166.79-.34h0Z" transform="translate(-348.74 -219.86)"/>
    <path class="cls-1" d="M1112.74,831.48h0l-5.66.22h0l-11.2.45-21.61.88h0c-19.45.78-35.61,1.54-38,1.8V835h0l-.06-.1c-.35.85-1.27,3.6-2.21,6.84h0l-1.7,6.09.09.13,80.91-.49.1-.1v-8a49.59,49.59,0,0,0-.47-7.8l-.1-.07Z" transform="translate(-348.74 -219.86)"/>
    <path d="M704,838.09Z" transform="translate(-348.74 -219.86)"/>
    <path class="cls-2" d="M440,777.06" transform="translate(-348.74 -219.86)"/>
    <path class="cls-2" d="M640.85,943.79" transform="translate(-348.74 -219.86)"/>
    <path class="cls-3" d="M489.08,220.38" transform="translate(-348.74 -219.86)"/>
    <path class="cls-3" d="M510.73,161.24" transform="translate(-348.74 -219.86)"/>
    <path class="cls-3" d="M510.73,161.24" transform="translate(-348.74 -219.86)"/>
    <path class="cls-3" d="M527.4,108.21" transform="translate(-348.74 -219.86)"/>
    <path class="cls-3" d="M527.4,108.21" transform="translate(-348.74 -219.86)"/>
    <path class="cls-3" d="M527.4,108.21" transform="translate(-348.74 -219.86)"/>
    <path class="cls-3" d="M527.4,108.21" transform="translate(-348.74 -219.86)"/>
    <path class="cls-3" d="M504.51,202" transform="translate(-348.74 -219.86)"/>
    <path class="cls-4" d="M562.72,129.08" transform="translate(-348.74 -219.86)"/>
    <path class="cls-4" d="M562.72,129.08" transform="translate(-348.74 -219.86)"/>
    <path class="cls-5" d="M729.84,612.61l2.27.52q23.14,4.88,30.32,11.06l5.38,4.43Q796.3,656.72,805.5,664,822,677.9,831.43,682.47q11.67,6.12,27.56,8.07,18.24,2.31,24.66-1.1,25.56-11.82,61.69-27.3Q956,657,959.62,654.32a53.82,53.82,0,0,0,9.15-7.62L986.45,626l5.79-4.65,15.86-10.67q2.89-2,8-8.65l15.35-25.66a21.43,21.43,0,0,0,2.73-8.6q-2.57-19.35-15.74-17.39L1023,512q-.22-10-4.64-10.09-5.37-1.08-14.07,2.46a58.13,58.13,0,0,0-11.92,12.14q-6.89,8.34-6.16,26.07a76.3,76.3,0,0,0-12.69,14.17L958.43,585a78.14,78.14,0,0,1-9.3,12.33,36.63,36.63,0,0,1-10.83,8.32l-17.39,7.31a12.82,12.82,0,0,1-4.72,1.1c-.91.19-2.33-.29-4.28-1.44Q901.82,601,892,596l-8.18-3.44a376.1,376.1,0,0,1-35.65-12.9q-13.59-5.85-21.72-12Q820.92,564,810.51,553L776,513.14q-10.77-10.25-15.36-12.05-16.41-9.73-47.31,2.58-16.55,6.09-35.54,18.78Z" transform="translate(-348.74 -219.86)"/>
    <path class="cls-6" d="M888.49,603.51h0q10.46,6.62,12.43,9.25a13,13,0,0,1,4,8.46,13.24,13.24,0,0,1-.22,3.08,13.8,13.8,0,0,1-.94,2.94L903,628.6a10.69,10.69,0,0,1-6.67,5.06,15.05,15.05,0,0,1-4.44.3,28.23,28.23,0,0,1-4.48-.71q-.74-.11-4.83-1.37c-1.64-.52-4.46-1.54-8.46-3.08Z" transform="translate(-348.74 -219.86)"/>
    <path class="cls-2" d="M637.79,512.67l32.59-9.37L703,493.92,740.3,623.54,675.1,642.3Q656.44,577.49,637.79,512.67Z" transform="translate(-348.74 -219.86)"/>
    <path class="cls-4" d="M495.82,220ZM1113.3,831.54h0Zm-113.4,2.82Zm36.14.6Zm-389.14-1.9,80.39.12h0c42.78.13,117.12.25,169.84.34h6.65c49.67.18,91,.41,95.72.76h0a39,39,0,0,1-1.44,6.77h0l-1.76,6.49L812.58,849h0L630,850.3l8-8.17Zm465.86-1.48a50.43,50.43,0,0,1,.46,7.77v8l-80.91.49,1.75-6.07c.94-3.24,1.85-6,2.2-6.84h0c2.37-.26,18.52-1,38-1.8h0l21.61-.88,11.21-.45h0l5.66-.22ZM502.06,219.86h0l-6.23.14h0c-3.39.12-14.21.8-24,1.58h-.09c-17.84,1.33-18.07,1.37-54.81,11.69h0c-33.63,9.3-37.58,10.4-37,13.18h0c.56,2.63,24.3,146.14,53,320.31l10.71,65.06L451.9,682c36.3,220.67,39.45,239.61,40.59,241.34h0a1,1,0,0,0,.75.45h0a5.22,5.22,0,0,1,.56,2.69v3a.67.67,0,0,0,.2.48.7.7,0,0,0,.49.2L1173.35,926a.7.7,0,0,0,.68-.68l.48-21.65c.34-11.86.5-35.57.4-52.62l-.19-31a.67.67,0,0,0-.68-.68h0l-568.17,3.44v-8.7a.69.69,0,0,0-.36-.6.62.62,0,0,0-.33-.08.7.7,0,0,0-.37.11l-2.55,1.65h0a6.26,6.26,0,0,1-1.5.82h0c-1.11-8.85-40.94-249.54-42-253.71h0a.85.85,0,0,0-.11-.26h0a.9.9,0,0,0-.52-.33h0a7.16,7.16,0,0,0-1.39-.08c-2.78,0-9.47.43-17.1,1h0c-7.3.51-11.71.79-14.57.81-3.37,0-4.43-.33-5.42-1h0a7,7,0,0,1-2.72-7.88h0c.92-3.1,5.26-4.44,22.62-5.37h0c9.41-.43,15.15-1.06,16.26-1.88h0a.93.93,0,0,0,.42-.75v-.08h0c-.14-1.49-12.08-74.86-26.73-163.69h0L502.74,220.44a.69.69,0,0,0-.68-.58Z" transform="translate(-348.74 -219.86)"/>
    <path class="cls-7" d="M1344.81,920.58l-4.52,3.45q-32.26,10.54-189.06,17.7Q993.36,948.89,779.35,949q-204.26-.4-326.75-7.61-39.24-2.32-64.66-5.2l-21.37-3q-17.61-3.12-17.83-6.6Q354,915.84,494.5,907.87t352.12-9.52q211.64-1,352.21,5.26T1344.81,920.58Z" transform="translate(-348.74 -219.86)"/>
    <path class="cls-4" d="M535.84,508.24l6.71-1.14,6.7-1.14,14,82.54-13.4,2.28Q542.88,549.52,535.84,508.24Z" transform="translate(-348.74 -219.86)"/>
    <path class="cls-8" d="M420.92,263.17,459,251.24l38.07-11.94,89.51,566.39-65.47,65.08Z" transform="translate(-348.74 -219.86)"/>
    <path class="cls-4" d="M764.65,355" transform="translate(-348.74 -219.86)"/>
    <path class="cls-4" d="M764.65,355" transform="translate(-348.74 -219.86)"/>
    <path class="cls-4" d="M764.65,355" transform="translate(-348.74 -219.86)"/>
    <path class="cls-4" d="M764.65,355" transform="translate(-348.74 -219.86)"/>
    <path class="cls-4" d="M486,527.18l83.31-19,83.3-19,38.1,166.62-166.62,38Q505.07,610.49,486,527.18Z" transform="translate(-348.74 -219.86)"/>
    <path class="cls-2" d="M666.3,285.75h411V461.59h-411V285.75" transform="translate(-348.74 -219.86)"/>  <!---->
    <path class="cls-9" d="M666.3,258.63h411v41.52h-411V258.63" transform="translate(-348.74 -219.86)"/>   <!---->
    <path class="cls-10" d="M707.6,436h0L766.3,333.3,825,436H707.6" transform="translate(-348.74 -219.86)"/>   <!---->
      <!----><path class="cls-2" d="M759.56,357.37l2.83,50h4.26l3.16-50Zm5.17,52.93a4.45,4.45,0,0,0-3.75,1.42,5.85,5.85,0,0,0-1.25,3.42,5.67,5.67,0,0,0,1.16,3.33,4.68,4.68,0,0,0,3.84,1.42,4.22,4.22,0,0,0,3.58-1.42,6.11,6.11,0,0,0,1.25-3.33,6.25,6.25,0,0,0-1.25-3.34A4.11,4.11,0,0,0,764.73,410.3Z" transform="translate(-348.74 -219.86)"/>
      <!----><path d="M890.54,359.3q4.77,0,7.09,1.83a6.49,6.49,0,0,1,2.38,5.43,8.05,8.05,0,0,1-.61,3.29,7,7,0,0,1-1.88,2.49,8.63,8.63,0,0,1-3,1.72,14.25,14.25,0,0,1-4.26.55h-5.15V359.3Zm37.93,0q4.77,0,7.09,1.83a6.49,6.49,0,0,1,2.38,5.43,8.05,8.05,0,0,1-.61,3.29,7,7,0,0,1-1.88,2.49,8.48,8.48,0,0,1-3,1.72,14.25,14.25,0,0,1-4.26.55H923V359.3Zm80.68,0c3.17,0,5.54.61,7.09,1.83a6.51,6.51,0,0,1,2.38,5.43,8.4,8.4,0,0,1-.61,3.29,7,7,0,0,1-1.89,2.49,8.48,8.48,0,0,1-3,1.72,14.25,14.25,0,0,1-4.26.55h-5.15V359.3Zm-38.43.11a15.78,15.78,0,0,1,6,1.08,12.42,12.42,0,0,1,4.54,3.13,14.66,14.66,0,0,1,2.82,5,20.41,20.41,0,0,1,1,6.76h0a20.59,20.59,0,0,1-1,6.7,14.3,14.3,0,0,1-2.88,5,12.74,12.74,0,0,1-4.54,3.16,16.22,16.22,0,0,1-11.91,0,12.74,12.74,0,0,1-4.54-3.16,14,14,0,0,1-2.93-5,22.55,22.55,0,0,1,0-13.46,14.19,14.19,0,0,1,2.93-5,12.42,12.42,0,0,1,4.54-3.13,15.42,15.42,0,0,1,6-1.05ZM842.3,355v2.38a1,1,0,0,0,.83,1.08c.33.11,1.41.34,3.24.67v32.39l-3.24.61a1,1,0,0,0-.83,1.13v2.38h29.13v-9.41h-2.72c-.73,0-1.15.3-1.24.91,0,.22-.11,1.58-.33,4.07h-15.2V377.3h15V373h-15V359.5h15.2c0,.78.12,1.52.19,2.24s.13,1.25.17,1.58a2.11,2.11,0,0,1,0,.55,1.07,1.07,0,0,0,1.13,1h2.78v-9.8Zm33.23-.11v2.49a1,1,0,0,0,.83,1l3.29.66v32.31l-3.29.69a1,1,0,0,0-.83,1v2.43h13.64v-2.43a1,1,0,0,0-.27-.67,1.25,1.25,0,0,0-.64-.36l-3.16-.69V378.63h3.63a3.19,3.19,0,0,1,1.69.33,4,4,0,0,1,1,1L902,394.47a2.31,2.31,0,0,0,2.16,1.19H910v-2.49a1,1,0,0,0-.86-1h.13c-.19-.05-1.25-.24-3.19-.55l-8.77-12a5.38,5.38,0,0,0-1.83-1.69,15.54,15.54,0,0,0,4.21-1.64,10.64,10.64,0,0,0,3.13-2.57,11.59,11.59,0,0,0,2-3.41,11.85,11.85,0,0,0,.69-4,12.24,12.24,0,0,0-.85-4.71A9,9,0,0,0,902,358a12,12,0,0,0-4.65-2.27,26.07,26.07,0,0,0-6.7-.78Zm37.93,0v2.49a1,1,0,0,0,.83,1l3.29.66v32.31l-3.29.69a1,1,0,0,0-.83,1v2.43H927.1v-2.43a1,1,0,0,0-.27-.67,1.25,1.25,0,0,0-.64-.36l-3.16-.69V378.63h3.63a3.19,3.19,0,0,1,1.69.33,4,4,0,0,1,1,1l10.55,14.51a2.31,2.31,0,0,0,2.16,1.19H948v-2.49a1,1,0,0,0-.86-1h.06c-.19-.05-1.25-.24-3.19-.55l-8.77-12a5.38,5.38,0,0,0-1.83-1.69,15.54,15.54,0,0,0,4.21-1.64,10.64,10.64,0,0,0,3.13-2.57,11.59,11.59,0,0,0,2-3.41,11.85,11.85,0,0,0,.69-4,12.24,12.24,0,0,0-.85-4.71,9,9,0,0,0-2.72-3.57,12.09,12.09,0,0,0-4.65-2.27,26.07,26.07,0,0,0-6.7-.78Zm80.67,0v2.49a1,1,0,0,0,.83,1l3.3.66v32.31l-3.3.69a1,1,0,0,0-.83,1v2.43h13.65v-2.43a1,1,0,0,0-.28-.67,1.22,1.22,0,0,0-.63-.36l-3.16-.69V378.63h3.63a3.29,3.29,0,0,1,1.69.33,4.31,4.31,0,0,1,1,1l10.55,14.51a2.3,2.3,0,0,0,2.16,1.19h5.9v-2.49a1,1,0,0,0-.86-1h0c-.18-.05-1.24-.24-3.18-.55l-8.78-12a5.35,5.35,0,0,0-1.82-1.69,15.48,15.48,0,0,0,4.2-1.64,10.49,10.49,0,0,0,3.13-2.57,11.38,11.38,0,0,0,2-3.41,11.85,11.85,0,0,0,.69-4,12.44,12.44,0,0,0-.86-4.71,9,9,0,0,0-2.71-3.57,12.16,12.16,0,0,0-4.65-2.27,26.07,26.07,0,0,0-6.7-.78Zm-23.31-.36a21.38,21.38,0,0,0-8.17,1.55,18.68,18.68,0,0,0-6.34,4.29,19.21,19.21,0,0,0-4.09,6.59,24.68,24.68,0,0,0,0,16.78,19.12,19.12,0,0,0,4.09,6.59,18.13,18.13,0,0,0,6.34,4.24,22,22,0,0,0,16.34,0,18.17,18.17,0,0,0,6.28-4.24,19.14,19.14,0,0,0,4.1-6.59,23.42,23.42,0,0,0,1.41-8.33l.06-.11a23.31,23.31,0,0,0-1.41-8.39,19.14,19.14,0,0,0-4.1-6.59,18.13,18.13,0,0,0-6.34-4.24,21.29,21.29,0,0,0-8.16-1.55Z" transform="translate(-348.74 -219.86)"/>
      <!----><path class="cls-10" d="M694.45,282.3l-.08,1.17a8.73,8.73,0,0,1-3.27,5.65A8.62,8.62,0,0,1,679,287.56a8,8,0,0,1-1.12-1.91l-.37-1.06a8.48,8.48,0,0,1-.31-2.29,8.62,8.62,0,0,1,17.23,0" transform="translate(-348.74 -219.86)"/>
      <!----><path class="cls-11" d="M701.36,280.59h41.73v5.71H701.36v-5.74" transform="translate(-348.74 -219.86)"/>
  </g>
</svg>