<svg id="Calque_1" data-name="Calque 1" xmlns="http://www.w3.org/2000/svg" viewBox="0 0 411 202.96"><defs><style>.cls-1{fill:#fff;}.cls-2{fill:#374850;}.cls-3{fill:red;}.cls-4{fill:#919191;}</style></defs><title>laptop2</title><g id="layer1"><path class="cls-1" d="M290.56,295.89h411V471.73h-411V295.89" transform="translate(-290.56 -268.77)"/><path class="cls-2" d="M290.56,268.77h411v41.52h-411V268.77" transform="translate(-290.56 -268.77)"/><path class="cls-3" d="M331.86,446.14h0l58.7-102.7,58.7,102.7H331.86" transform="translate(-290.56 -268.77)"/><path class="cls-1" d="M383.82,367.51l2.83,50h4.26l3.16-50ZM389,420.44a4.45,4.45,0,0,0-3.75,1.42,5.85,5.85,0,0,0-1.25,3.42,5.65,5.65,0,0,0,1.16,3.33A4.67,4.67,0,0,0,389,430a4.24,4.24,0,0,0,3.58-1.42,6.11,6.11,0,0,0,1.25-3.33,6.25,6.25,0,0,0-1.25-3.34A4.11,4.11,0,0,0,389,420.44Z" transform="translate(-290.56 -268.77)"/><path d="M514.8,369.44q4.77,0,7.09,1.83a6.49,6.49,0,0,1,2.38,5.43,8.05,8.05,0,0,1-.61,3.29,7,7,0,0,1-1.88,2.49,8.63,8.63,0,0,1-3,1.72,14.25,14.25,0,0,1-4.26.55h-5.15V369.44Zm37.93,0q4.77,0,7.09,1.83a6.49,6.49,0,0,1,2.38,5.43,8.05,8.05,0,0,1-.61,3.29,7,7,0,0,1-1.88,2.49,8.48,8.48,0,0,1-3,1.72,14.25,14.25,0,0,1-4.26.55h-5.19V369.44Zm80.68,0c3.17,0,5.54.61,7.09,1.83a6.51,6.51,0,0,1,2.38,5.43,8.4,8.4,0,0,1-.61,3.29,7,7,0,0,1-1.89,2.49,8.48,8.48,0,0,1-3,1.72,14.25,14.25,0,0,1-4.26.55H628V369.44Zm-38.43.11a15.78,15.78,0,0,1,6,1.08,12.42,12.42,0,0,1,4.54,3.13,14.57,14.57,0,0,1,2.82,5,20.41,20.41,0,0,1,1,6.76h0a20.59,20.59,0,0,1-1,6.7,14.22,14.22,0,0,1-2.88,5,12.74,12.74,0,0,1-4.54,3.16,16.22,16.22,0,0,1-11.91,0,12.74,12.74,0,0,1-4.54-3.16,14.1,14.1,0,0,1-2.93-5,22.55,22.55,0,0,1,0-13.46,14.19,14.19,0,0,1,2.93-5,12.42,12.42,0,0,1,4.54-3.13,15.38,15.38,0,0,1,6-1.05Zm-128.42-4.41v2.38a1,1,0,0,0,.83,1.08c.33.11,1.41.34,3.24.67v32.39l-3.24.61a1,1,0,0,0-.83,1.13v2.38h29.13v-9.41H493c-.73,0-1.15.3-1.24.91,0,.22-.11,1.58-.33,4.07H476.2V387.44h15v-4.3h-15v-13.5h15.2c0,.78.12,1.52.19,2.24s.13,1.25.17,1.58a2.53,2.53,0,0,1,0,.55,1.07,1.07,0,0,0,1.13,1h2.78v-9.8Zm33.23-.11v2.49a1,1,0,0,0,.83,1l3.29.66v32.31l-3.29.69a1,1,0,0,0-.83,1v2.43h13.64v-2.43a1,1,0,0,0-.27-.67,1.25,1.25,0,0,0-.64-.36l-3.16-.69V388.77H513a3.19,3.19,0,0,1,1.69.33,4,4,0,0,1,1,1l10.58,14.51a2.31,2.31,0,0,0,2.16,1.19h5.84v-2.49a1,1,0,0,0-.86-1h.13c-.19-.05-1.25-.24-3.19-.55l-8.77-12a5.38,5.38,0,0,0-1.83-1.69,15.54,15.54,0,0,0,4.21-1.64,10.64,10.64,0,0,0,3.13-2.57,11.59,11.59,0,0,0,2-3.41,11.85,11.85,0,0,0,.69-4,12.24,12.24,0,0,0-.85-4.71,9,9,0,0,0-2.66-3.6,12,12,0,0,0-4.65-2.27,26.07,26.07,0,0,0-6.7-.78Zm37.93,0v2.49a1,1,0,0,0,.83,1l3.29.66v32.31l-3.29.69a1,1,0,0,0-.83,1v2.43h13.64v-2.43a1,1,0,0,0-.27-.67,1.25,1.25,0,0,0-.64-.36l-3.16-.69V388.77h3.63a3.19,3.19,0,0,1,1.69.33,4,4,0,0,1,1,1l10.55,14.51a2.31,2.31,0,0,0,2.16,1.19h5.94v-2.49a1,1,0,0,0-.86-1h.06c-.19-.05-1.25-.24-3.19-.55l-8.77-12a5.38,5.38,0,0,0-1.83-1.69,15.54,15.54,0,0,0,4.21-1.64,10.64,10.64,0,0,0,3.13-2.57,11.59,11.59,0,0,0,2-3.41,11.85,11.85,0,0,0,.69-4,12.24,12.24,0,0,0-.85-4.71,9,9,0,0,0-2.72-3.57,12.09,12.09,0,0,0-4.65-2.27,26.07,26.07,0,0,0-6.7-.78Zm80.67,0v2.49a1,1,0,0,0,.83,1l3.3.66v32.31l-3.3.69a1,1,0,0,0-.83,1v2.43H632v-2.43a1,1,0,0,0-.28-.67,1.22,1.22,0,0,0-.63-.36l-3.16-.69V388.77h3.63a3.29,3.29,0,0,1,1.69.33,4.31,4.31,0,0,1,1,1l10.55,14.51A2.3,2.3,0,0,0,647,405.8h5.9v-2.49a1,1,0,0,0-.86-1h0c-.18-.05-1.24-.24-3.18-.55l-8.78-12a5.35,5.35,0,0,0-1.82-1.69,15.48,15.48,0,0,0,4.2-1.64,10.64,10.64,0,0,0,3.13-2.57,11.38,11.38,0,0,0,2-3.41,11.85,11.85,0,0,0,.69-4,12.44,12.44,0,0,0-.86-4.71,9,9,0,0,0-2.71-3.57,12.16,12.16,0,0,0-4.65-2.27,26.07,26.07,0,0,0-6.7-.78Zm-23.31-.36a21.38,21.38,0,0,0-8.17,1.55,18.68,18.68,0,0,0-6.34,4.29,19.21,19.21,0,0,0-4.09,6.59,24.68,24.68,0,0,0,0,16.78,19.12,19.12,0,0,0,4.09,6.59,18.13,18.13,0,0,0,6.34,4.24,22,22,0,0,0,16.34,0,18.17,18.17,0,0,0,6.28-4.24,19.14,19.14,0,0,0,4.1-6.59,23.42,23.42,0,0,0,1.41-8.33l.06-.11a23.31,23.31,0,0,0-1.41-8.39,19.14,19.14,0,0,0-4.1-6.59,18.13,18.13,0,0,0-6.34-4.24,21.29,21.29,0,0,0-8.16-1.55Z" transform="translate(-290.56 -268.77)"/><path class="cls-3" d="M318.71,292.44l-.08,1.17a8.73,8.73,0,0,1-3.27,5.65,8.62,8.62,0,0,1-12.09-1.55h0a7.79,7.79,0,0,1-1.12-1.91l-.37-1.06a8.48,8.48,0,0,1-.31-2.29,8.62,8.62,0,0,1,17.23,0" transform="translate(-290.56 -268.77)"/><path class="cls-4" d="M325.62,290.73h41.73v5.71H325.62V290.7" transform="translate(-290.56 -268.77)"/></g></svg>