<svg id="Calque_1" data-name="Calque 1" xmlns="http://www.w3.org/2000/svg" viewBox="0 0 996.07 729.14"><defs><style>.cls-1{fill:#677678;}.cls-2{fill:#fff;}.cls-3{fill:#3c464f;}.cls-4,.cls-7{fill:#222b32;}.cls-5{fill:#ffc5a1;}.cls-6{fill:#fff1e8;}.cls-7{fill-opacity:0.33;}.cls-8{fill:#44c5e5;}</style></defs><title>laptop1</title><g id="layer1"><path class="cls-1" d="M298.16,613.14h0l-8.94,9h0l-8,8.17.06.12,182.53-1.29h0l183.75-1.36h.07l1.76-6.45h0a40.19,40.19,0,0,0,1.44-6.77h0v-.13c-4.75-.35-46.06-.58-95.72-.76h-9.65c-52.47-.09-124.85-.21-166.79-.34h0Z"/><path class="cls-1" d="M764,611.62h0l-5.66.22h0l-11.2.45-21.61.88h0c-19.45.78-35.61,1.54-38,1.8v.17h0l-.06-.1c-.35.85-1.27,3.6-2.21,6.84h0l-1.7,6.09.09.13,80.91-.49.1-.1v-8a49.59,49.59,0,0,0-.47-7.8l-.1-.07Z"/><path d="M355.26,618.23"/><path class="cls-2" d="M91.26,557.2"/><path class="cls-2" d="M292.11,723.93"/><path class="cls-3" d="M140.34.52"/><path class="cls-3" d="M162-58.62"/><path class="cls-3" d="M162-58.62"/><path class="cls-3" d="M178.66-111.65"/><path class="cls-3" d="M178.66-111.65"/><path class="cls-3" d="M178.66-111.65"/><path class="cls-3" d="M178.66-111.65"/><path class="cls-3" d="M155.77-17.86"/><path class="cls-4" d="M214-90.78"/><path class="cls-4" d="M214-90.78"/><path class="cls-5" d="M381.1,392.75l2.27.52q23.14,4.88,30.32,11.06l5.38,4.43q28.49,28.1,37.69,35.38,16.5,13.91,25.93,18.47,11.67,6.12,27.56,8.07,18.24,2.31,24.66-1.1,25.56-11.82,61.69-27.3,10.67-5.14,14.28-7.82a53.82,53.82,0,0,0,9.15-7.62l17.68-20.7,5.79-4.65,15.86-10.67q2.89-2,8-8.65l15.35-25.66a21.43,21.43,0,0,0,2.73-8.6q-2.57-19.35-15.74-17.39l4.56-38.38q-.22-10-4.64-10.09-5.37-1.08-14.07,2.46a58.13,58.13,0,0,0-11.92,12.14q-6.89,8.34-6.16,26.07a76.65,76.65,0,0,0-12.69,14.17l-15.09,28.25a78.14,78.14,0,0,1-9.3,12.33,36.63,36.63,0,0,1-10.83,8.32l-17.39,7.31a12.82,12.82,0,0,1-4.72,1.1c-.91.19-2.33-.29-4.28-1.44q-10.09-11.62-19.91-16.62l-8.18-3.44a376.1,376.1,0,0,1-35.65-12.9q-13.59-5.85-21.72-12-5.54-3.66-15.94-14.66l-34.51-39.86q-10.77-10.25-15.36-12-16.41-9.74-47.31,2.58Q348,289.9,329.05,302.59Z"/><path class="cls-6" d="M539.75,383.65h0q10.46,6.62,12.43,9.25a13,13,0,0,1,4,8.46,13.24,13.24,0,0,1-.22,3.08,13.8,13.8,0,0,1-.94,2.94l-.76,1.36a10.69,10.69,0,0,1-6.67,5.06,15.05,15.05,0,0,1-4.44.3,28.23,28.23,0,0,1-4.48-.71q-.74-.11-4.83-1.37c-1.64-.52-4.46-1.54-8.46-3.08Z"/><path class="cls-2" d="M289.05,292.81l32.59-9.37,32.62-9.38,37.3,129.62-65.2,18.76Q307.7,357.63,289.05,292.81Z"/><path class="cls-4" d="M764.56,611.68Zm-466.4,1.52,80.39.12h0c42.78.13,117.12.25,169.84.34H555c49.67.18,91,.41,95.72.76h0a39.23,39.23,0,0,1-1.44,6.77h0l-1.76,6.49-183.72,1.46h0l-182.58,1.3,8-8.17ZM764,611.72a50.43,50.43,0,0,1,.46,7.77v8l-80.91.49,1.75-6.07c.94-3.24,1.85-6,2.2-6.84h0c2.37-.26,18.52-1,38-1.8h0l21.61-.88,11.21-.45h0l5.66-.22ZM153.32,0h0l-6.23.14h0c-3.39.12-14.21.8-24,1.58H123c-17.84,1.33-18.07,1.37-54.81,11.69h0c-33.63,9.3-37.58,10.4-37,13.18h0c.56,2.63,24.3,146.14,53,320.31L94.9,412l8.26,50.18c36.3,220.67,39.45,239.61,40.59,241.34h0a1,1,0,0,0,.75.45h0a5.22,5.22,0,0,1,.56,2.69v3a.67.67,0,0,0,.2.48.7.7,0,0,0,.49.2l678.86-4.16a.7.7,0,0,0,.68-.68l.48-21.65c.34-11.86.5-35.57.4-52.62l-.19-31a.67.67,0,0,0-.66-.68h0L257.13,603v-8.7a.69.69,0,0,0-.36-.6.62.62,0,0,0-.33-.08.7.7,0,0,0-.37.11l-2.55,1.65h0a6.07,6.07,0,0,1-1.5.82h0c-1.11-8.85-40.94-249.54-42-253.71h0a.85.85,0,0,0-.11-.26h0a.9.9,0,0,0-.52-.33h0a7.21,7.21,0,0,0-1.39-.08c-2.78,0-9.47.43-17.1,1h0c-7.3.51-11.71.79-14.57.81-3.37,0-4.43-.33-5.42-1h0a7,7,0,0,1-2.72-7.88h0c.92-3.1,5.26-4.44,22.62-5.37h0c9.41-.43,15.15-1.06,16.26-1.88h0a1,1,0,0,0,.42-.75v-.08h0c-.14-1.49-12.08-74.86-26.73-163.69h0L154,.58A.69.69,0,0,0,153.32,0Z"/><path class="cls-7" d="M996.07,700.72l-4.52,3.45q-32.26,10.55-189.06,17.7Q644.62,729,430.61,729.14q-204.26-.4-326.75-7.61-39.24-2.32-64.66-5.2l-21.37-3Q.22,710.21,0,706.73,5.27,696,145.76,688t352.12-9.52q211.64-1,352.21,5.26T996.07,700.72Z"/><path class="cls-4" d="M187.1,288.38l6.71-1.14,6.7-1.14,14,82.54-13.4,2.28Q194.14,329.66,187.1,288.38Z"/><path class="cls-8" d="M72.18,43.31l38.08-11.93,38.07-11.94,89.51,566.39-65.47,65.08Z"/><path class="cls-4" d="M415.91,135.14"/><path class="cls-4" d="M415.91,135.14"/><path class="cls-4" d="M415.91,135.14"/><path class="cls-4" d="M415.91,135.14"/><path class="cls-4" d="M137.26,307.32l83.31-19,83.3-19L342,435.94l-166.62,38Q156.33,390.63,137.26,307.32Z"/></g></svg>